# xmcd CD database file
#
# Track frame offsets:
#	150
#	17273
#	31988
#
# Disc length: 665 seconds
#
# Revision: 0
# Processed by: cddbd v1.5.1PL0 Copyright (c) Steve Scherf et al.
# Submitted via: Feurio! 1.68 - http://www.feurio.com
#
DISCID=13029703
DTITLE=Oliver Timm - If Tomorrow never comes
DYEAR=1900
DGENRE=Country
TTITLE0=If tomorrownever comes
TTITLE1=The thunder rolls
TTITLE2=To make you feel my love
EXTD=
EXTT0=
EXTT1=
EXTT2=
PLAYORDER=
